<svg viewBox="-768 -342 1536 684" width="1536" height="684" style="background-color: rgb(255, 255, 255);" xmlns="http://www.w3.org/2000/svg"><path d="M-133.85563928637794,70.37369886402237L-138.6906278128996,70.28835715984067M-138.69062781289963,-142.12649892523123L-138.6906278128996,70.28835715984067M-138.6906278128996,70.28835715984067L-184.71915409058022,139.32974265940436M-133.85563928637794,-142.04115722104956L-133.85563928637794,70.37369886402237M-133.85563928637794,70.37369886402237L-179.88416556405852,139.41508436358603" style="fill:none;stroke:rgb(0,0,0);stroke-width:1;stroke-linecap:round"></path><path d="M-133.85563928637794,70.37369886402237L-138.6906278128996,70.28835715984067L-138.6906278128996,-142.12649892523126zM-133.85563928637794,-142.04115722104956L-133.85563928637794,70.37369886402237L-138.6906278128996,-142.12649892523126z" style="fill:rgb(238,238,238); fill-opacity: 0.25"></path><path d="M-133.85563928637794,-142.04115722104956L-138.69062781289963,-142.12649892523123M-138.69062781289963,-142.12649892523123L-184.71915409058022,-73.08511342566759M-133.85563928637794,-142.04115722104956L-179.88416556405855,-72.9997717214859" style="fill:none;stroke:rgb(0,0,0);stroke-width:1;stroke-linecap:round"></path><path d="M-184.7191540905802,139.32974265940433L-138.6906278128996,70.28835715984067L-133.85563928637794,70.37369886402237z" style="fill:rgb(238,238,238); fill-opacity: 0.25"></path><path d="M-22.817262609780048,62.651354537995466L-93.19579246682846,61.40911298088397M-93.19579246682846,-86.28705675424601L-93.19579246682846,61.40911298088397M-93.19579246682846,61.40911298088397L-109.33927416149567,85.62384313024198" style="fill:none;stroke:rgb(0,0,0);stroke-width:1;stroke-linecap:round"></path><path d="M-179.88416556405852,139.41508436358603L-133.85563928637794,70.37369886402237L-133.85563928637794,-142.04115722104956z" style="fill:rgb(238,238,238); fill-opacity: 0.25"></path><path d="M-22.817262609780048,-85.0448151971345L-22.817262609780048,62.651354537995466M-22.817262609780048,62.651354537995466L-38.96074430444726,86.86608468735348" style="fill:none;stroke:rgb(0,0,0);stroke-width:1;stroke-linecap:round"></path><path d="M-22.817262609780048,62.651354537995466L-93.19579246682846,61.40911298088397L-93.19579246682846,-86.287056754246zM-138.6906278128996,-142.12649892523126L-138.6906278128996,70.28835715984067L-184.7191540905802,-73.08511342566759zM-22.817262609780048,-85.0448151971345L-22.817262609780048,62.651354537995466L-93.19579246682846,-86.287056754246z" style="fill:rgb(238,238,238); fill-opacity: 0.25"></path><path d="M-22.817262609780048,-85.0448151971345L-93.19579246682846,-86.28705675424601M-93.19579246682846,-86.28705675424601L-109.33927416149567,-62.072326604887984" style="fill:none;stroke:rgb(0,0,0);stroke-width:1;stroke-linecap:round"></path><path d="M-179.88416556405852,-72.9997717214859L-133.85563928637794,-142.04115722104956L-138.6906278128996,-142.12649892523126z" style="fill:rgb(238,238,238); fill-opacity: 0.25"></path><path d="M-22.817262609780048,-85.0448151971345L-38.96074430444726,-60.83008504777648M-26.510804635920806,22.982880438842983L-96.88933449296923,21.740638881731478M-96.88933449296923,5.925430896634714L-96.88933449296923,21.740638881731478M-96.88933449296923,21.740638881731478L-98.61796781543538,24.33353614035282M-26.510804635920806,7.167672453746215L-96.88933449296923,5.925430896634714M-96.88933449296923,5.925430896634714L-98.61796781543538,8.51832815525605" style="fill:none;stroke:rgb(0,0,0);stroke-width:1;stroke-linecap:round"></path><path d="M-26.510804635920802,22.982880438842983L-96.88933449296923,21.740638881731485L-96.88933449296923,5.925430896634713z" style="fill:rgb(153,221,255); fill-opacity: 0.26"></path><path d="M172.95272583549308,43.15988858383279L32.19566612139624,40.67540546960979M32.19566612139624,-52.00003828005408L32.19566612139624,40.67540546960979M32.19566612139624,40.67540546960979L22.06605793723757,55.86950878247552" style="fill:none;stroke:rgb(0,0,0);stroke-width:1;stroke-linecap:round"></path><path d="M-26.510804635920802,7.1676724537462135L-26.510804635920802,22.982880438842983L-96.88933449296923,5.925430896634713zM-96.88933449296923,5.925430896634713L-96.88933449296923,21.740638881731485L-98.61796781543538,8.51832815525605z" style="fill:rgb(153,221,255); fill-opacity: 0.26"></path><path d="M-26.510804635920806,7.167672453746215L-26.510804635920806,22.982880438842983M-26.510804635920806,22.982880438842983L-28.239437958386972,25.57577769746432M-26.510803671360456,7.167672981485279L-26.510803671360456,22.982879822520765M-26.510803671360456,22.982879822520765L-28.239436993826622,25.575777081142103M-26.510803671360456,22.982879822520765L29.33572810349148,11.636161102429469" style="fill:none;stroke:rgb(0,0,0);stroke-width:1;stroke-linecap:round"></path><path d="M-98.61796781543538,24.33353614035282L-96.88933449296923,21.740638881731485L-26.510804635920802,22.982880438842983z" style="fill:rgb(153,221,255); fill-opacity: 0.26"></path><path d="M-26.510804635920806,7.167672453746215L-28.239437958386972,9.760569712367552M-26.510803671360456,7.167672981485279L-28.239436993826622,9.760570240106617M-26.510803671360456,7.167672981485279L29.33572810349148,11.636161102429469" style="fill:none;stroke:rgb(0,0,0);stroke-width:1;stroke-linecap:round"></path><path d="M-109.33927416149567,85.62384313024198L-93.19579246682846,61.40911298088397L-22.817262609780048,62.651354537995466z" style="fill:rgb(238,238,238); fill-opacity: 0.25"></path><path d="M-96.88933449296923,21.740638881731485L-98.61796781543538,24.33353614035282L-98.61796781543538,8.51832815525605zM-28.239437958386972,9.76056971236755L-26.510804635920802,7.1676724537462135L-96.88933449296923,5.925430896634713zM-28.239437958386972,25.575777697464318L-26.510804635920802,22.982880438842983L-26.510804635920802,7.1676724537462135z" style="fill:rgb(153,221,255); fill-opacity: 0.26"></path><path d="M-26.51080359546819,7.16767263855432L-26.51080359546819,22.982880338127046L-28.23943688672602,25.575777549936827z" style="fill:rgb(255,187,187); fill-opacity: 0.26"></path><path d="M172.95272583549303,43.15988858383279L32.19566612139626,40.675405469609785L32.19566612139626,-52.00003828005408z" style="fill:rgb(238,238,238); fill-opacity: 0.25"></path><path d="M-28.239437958386972,25.575777697464318L-98.61796781543538,24.33353614035282L-26.510804635920802,22.982880438842983zM-98.61796781543538,8.51832815525605L-28.239437958386972,9.76056971236755L-96.88933449296923,5.925430896634713z" style="fill:rgb(153,221,255); fill-opacity: 0.26"></path><path d="M-98.61796781543538,8.51832815525605L-98.61796781543538,24.33353614035282M-98.61796781543538,24.33353614035282L-28.239437958386972,25.57577769746432" style="fill:none;stroke:rgb(0,0,0);stroke-width:1;stroke-linecap:round"></path><path d="M-26.51080359546819,22.982880338127046L-26.51080359546819,7.16767263855432L29.335728076340036,11.636160652635395z" style="fill:rgb(255,187,187); fill-opacity: 0.26"></path><path d="M-98.61796781543538,8.51832815525605L-28.239437958386972,9.760569712367552M172.95272583549308,-49.51555516583108L172.95272583549308,43.15988858383279M172.95272583549308,43.15988858383279L162.82311765133437,58.35399189669852" style="fill:none;stroke:rgb(0,0,0);stroke-width:1;stroke-linecap:round"></path><path d="M-28.239437958386972,9.76056971236755L-28.239437958386972,25.575777697464318L-26.510804635920802,7.1676724537462135z" style="fill:rgb(153,221,255); fill-opacity: 0.26"></path><path d="M-26.51080359546819,7.16767263855432L-28.23943688672602,25.575777549936827L-28.23943688672602,9.760569850364101z" style="fill:rgb(255,187,187); fill-opacity: 0.26"></path><path d="M172.95272583549308,-49.51555516583108L32.19566612139624,-52.00003828005408M32.19566612139624,-52.00003828005408L22.06605793723757,-36.80593496718836" style="fill:none;stroke:rgb(0,0,0);stroke-width:1;stroke-linecap:round"></path><path d="M-98.61796781543538,8.51832815525605L-98.61796781543538,24.33353614035282L-28.239437958386972,9.76056971236755zM-98.61796781543538,24.33353614035282L-28.239437958386972,25.575777697464318L-28.239437958386972,9.76056971236755z" style="fill:rgb(153,221,255); fill-opacity: 0.26"></path><path d="M-28.23943688672602,25.575777549936827L-26.51080359546819,22.982880338127046L29.335728076340036,11.636160652635395z" style="fill:rgb(255,187,187); fill-opacity: 0.26"></path><path d="M-28.239437958386972,9.760569712367552L-28.239437958386972,25.57577769746432M-28.239436993826622,25.575777081142103L-28.239436993826622,9.760570240106617M-28.239436993826622,25.575777081142103L29.33572810349148,11.636161102429469" style="fill:none;stroke:rgb(0,0,0);stroke-width:1;stroke-linecap:round"></path><path d="M-38.96074430444726,86.86608468735348L-22.817262609780048,62.651354537995466L-22.817262609780048,-85.0448151971345z" style="fill:rgb(238,238,238); fill-opacity: 0.25"></path><path d="M-26.51080359546819,7.16767263855432L-28.23943688672602,9.760569850364101L29.335728076340036,11.636160652635395z" style="fill:rgb(255,187,187); fill-opacity: 0.26"></path><path d="M-93.19579246682846,-86.287056754246L-93.19579246682846,61.40911298088397L-109.33927416149567,-62.072326604887984zM172.95272583549303,-49.51555516583108L172.95272583549303,43.15988858383279L32.19566612139626,-52.00003828005408z" style="fill:rgb(238,238,238); fill-opacity: 0.25"></path><path d="M-28.239436993826622,9.760570240106617L29.33572810349148,11.636161102429469" style="fill:none;stroke:rgb(0,0,0);stroke-width:1;stroke-linecap:round"></path><path d="M-28.23943688672602,9.760569850364101L-28.23943688672602,25.575777549936827L29.335728076340036,11.636160652635395z" style="fill:rgb(255,187,187); fill-opacity: 0.26"></path><path d="M288.41353456154013,177.85622074674987L248.19723046865403,177.14636840514666M248.19723046865403,-172.0936223751695L248.19723046865403,177.14636840514666M248.19723046865403,177.14636840514666L243.83464575079148,183.69011241866087M172.95272583549308,-49.51555516583108L162.82311765133437,-34.32145185296535" style="fill:none;stroke:rgb(0,0,0);stroke-width:1;stroke-linecap:round"></path><path d="M-38.96074430444726,-60.83008504777648L-22.817262609780048,-85.0448151971345L-93.19579246682846,-86.287056754246z" style="fill:rgb(238,238,238); fill-opacity: 0.25"></path><path d="M288.41353456154013,-171.3837700335663L288.41353456154013,177.85622074674987M288.41353456154013,177.85622074674987L284.0509498436776,184.39996476026408" style="fill:none;stroke:rgb(0,0,0);stroke-width:1;stroke-linecap:round"></path><path d="M22.06605793723758,55.86950878247552L32.19566612139626,40.675405469609785L172.95272583549303,43.15988858383279zM32.19566612139626,-52.00003828005408L32.19566612139626,40.675405469609785L22.06605793723758,-36.80593496718836zM243.83464575079154,183.69011241866087L248.19723046865408,177.14636840514666L288.41353456154013,177.85622074674984z" style="fill:rgb(238,238,238); fill-opacity: 0.25"></path><path d="M386.6497008621785,144.66616530606095L346.4333967692925,143.95631296445777M346.4333967692925,-135.4356613548147L346.4333967692925,143.95631296445777M346.4333967692925,143.95631296445777L342.0708120514299,150.50005697797192M386.6497008621785,-134.72580901321152L386.6497008621785,144.66616530606095M386.6497008621785,144.66616530606095L382.28711614431603,151.2099093195751" style="fill:none;stroke:rgb(0,0,0);stroke-width:1;stroke-linecap:round"></path><path d="M288.41353456154013,177.85622074674984L248.19723046865408,177.14636840514666L248.19723046865408,-172.0936223751695zM162.82311765133437,58.35399189669852L172.95272583549303,43.15988858383279L172.95272583549303,-49.51555516583108zM162.82311765133437,-34.32145185296535L172.95272583549303,-49.51555516583108L32.19566612139626,-52.00003828005408zM-38.96074430444726,86.86608468735348L-109.33927416149567,85.62384313024198L-22.817262609780048,62.651354537995466zM284.0509498436776,184.39996476026406L243.83464575079154,183.69011241866087L288.41353456154013,177.85622074674984zM342.07081205143,150.50005697797192L346.43339676929253,143.95631296445777L386.64970086217863,144.66616530606098zM-93.19579246682846,61.40911298088397L-109.33927416149567,85.62384313024198L-109.33927416149567,-62.072326604887984zM386.64970086217863,144.66616530606098L346.43339676929253,143.95631296445777L346.43339676929253,-135.4356613548147zM284.0509498436776,184.39996476026406L288.41353456154013,177.85622074674984L288.41353456154013,-171.38377003356632zM32.19566612139626,40.675405469609785L22.06605793723758,55.86950878247552L22.06605793723758,-36.80593496718836z" style="fill:rgb(238,238,238); fill-opacity: 0.25"></path><path d="M243.83464575079148,-165.54987836165532L243.83464575079148,183.69011241866087M243.83464575079148,183.69011241866087L284.0509498436776,184.39996476026408" style="fill:none;stroke:rgb(0,0,0);stroke-width:1;stroke-linecap:round"></path><path d="M288.41353456154013,-171.38377003356632L288.41353456154013,177.85622074674984L248.19723046865408,-172.0936223751695z" style="fill:rgb(238,238,238); fill-opacity: 0.25"></path><path d="M192.83106437323818,4.85948627672235L221.84099553236828,5.3715365018125025" style="fill:none;stroke:rgb(0,0,0);stroke-width:1;stroke-linecap:round"></path><path d="M162.82311765133437,58.35399189669852L22.06605793723758,55.86950878247552L172.95272583549303,43.15988858383279z" style="fill:rgb(238,238,238); fill-opacity: 0.25"></path><path d="M284.0509498436776,-164.8400260200521L284.0509498436776,184.39996476026408M484.885867162817,41.62812772616671L444.66956306993103,40.91827538456351M444.66956306993103,-28.92971819525461L444.66956306993103,40.91827538456351M444.66956306993103,40.91827538456351L440.3069783520685,47.46201939807769" style="fill:none;stroke:rgb(0,0,0);stroke-width:1;stroke-linecap:round"></path><path d="M382.2871161443161,151.20990931957513L342.07081205143,150.50005697797192L386.64970086217863,144.66616530606098zM248.19723046865408,177.14636840514666L243.83464575079154,183.69011241866087L243.83464575079154,-165.5498783616553zM-38.96074430444726,-60.83008504777648L-38.96074430444726,86.86608468735348L-22.817262609780048,-85.0448151971345z" style="fill:rgb(238,238,238); fill-opacity: 0.25"></path><path d="M222.6117141557233,-5.489770679607249L221.07027690901327,-3.1776618249490407L241.180949638455,5.712903318539272z" style="fill:rgb(0,0,0)"></path><path d="M484.885867162817,-28.219865853651406L484.885867162817,41.62812772616671M484.885867162817,41.62812772616671L480.5232824449545,48.171871739680896" style="fill:none;stroke:rgb(0,0,0);stroke-width:1;stroke-linecap:round"></path><path d="M382.2871161443161,151.20990931957513L386.64970086217863,144.66616530606098L386.64970086217863,-134.7258090132115zM484.885867162817,41.6281277261667L444.669563069931,40.91827538456351L444.669563069931,-28.92971819525461z" style="fill:rgb(238,238,238); fill-opacity: 0.25"></path><path d="M220.5939465553,10.949148674656831L221.84099553236828,17.36788852298075L241.180949638455,5.712903318539272z" style="fill:rgb(0,0,0)"></path><path d="M386.64970086217863,-134.7258090132115L386.64970086217863,144.66616530606098L346.43339676929253,-135.4356613548147z" style="fill:rgb(238,238,238); fill-opacity: 0.25"></path><path d="M-172.4430904986747,67.60147958027318L-106.32569029126495,49.536791291976805M-172.44309049867468,90.77034051768915L-106.32569029126495,49.536791291976805M-174.97549254471437,94.56886634590558L-106.32569029126495,49.536791291976805M-174.97549254471437,71.40000540848962L-106.32569029126495,49.536791291976805" style="fill:none;stroke:rgb(0,0,0);stroke-width:1;stroke-linecap:round"></path><path d="M-109.33927416149567,-62.072326604887984L-38.96074430444726,-60.83008504777648L-93.19579246682846,-86.287056754246zM248.19723046865408,-172.0936223751695L248.19723046865408,177.14636840514666L243.83464575079154,-165.5498783616553z" style="fill:rgb(238,238,238); fill-opacity: 0.25"></path><path d="M221.07027690901327,-3.1776618249490407L220.5939465553,10.949148674656831L241.180949638455,5.712903318539272z" style="fill:rgb(0,0,0)"></path><path d="M22.06605793723758,-36.80593496718836L162.82311765133437,-34.32145185296535L32.19566612139626,-52.00003828005408z" style="fill:rgb(238,238,238); fill-opacity: 0.25"></path><path d="M291.0672306738766,6.593439066555284L320.07716183300676,7.105489291645437" style="fill:none;stroke:rgb(0,0,0);stroke-width:1;stroke-linecap:round"></path><path d="M484.885867162817,-28.219865853651413L484.885867162817,41.6281277261667L444.669563069931,-28.92971819525461z" style="fill:rgb(238,238,238); fill-opacity: 0.25"></path><path d="M484.885867162817,-28.219865853651406L444.66956306993103,-28.92971819525461M444.66956306993103,-28.92971819525461L440.3069783520685,-22.385974181740426M342.0708120514299,-128.89191734130054L342.0708120514299,150.50005697797192M342.0708120514299,150.50005697797192L382.28711614431603,151.2099093195751M288.41353456154013,-171.3837700335663L248.19723046865403,-172.0936223751695M248.19723046865403,-172.0936223751695L243.83464575079148,-165.54987836165532" style="fill:none;stroke:rgb(0,0,0);stroke-width:1;stroke-linecap:round"></path><path d="M-179.88416556405852,139.41508436358603L-184.7191540905802,139.32974265940433L-133.85563928637794,70.37369886402237zM346.43339676929253,143.95631296445777L342.07081205143,150.50005697797192L342.07081205143,-128.89191734130054zM162.82311765133437,-34.32145185296535L162.82311765133437,58.35399189669852L172.95272583549303,-49.51555516583108z" style="fill:rgb(238,238,238); fill-opacity: 0.25"></path><path d="M320.84788045636174,-3.7558178897743155L319.3064432096517,-1.4437090351161068L339.4171159390935,7.446856108372206z" style="fill:rgb(0,0,0)"></path><path d="M440.3069783520684,47.46201939807769L444.669563069931,40.91827538456351L484.885867162817,41.6281277261667z" style="fill:rgb(238,238,238); fill-opacity: 0.25"></path><path d="M484.885867162817,-28.219865853651406L480.5232824449545,-21.676121840137224" style="fill:none;stroke:rgb(0,0,0);stroke-width:1;stroke-linecap:round"></path><path d="M318.83011285593847,12.683101464489766L320.07716183300676,19.10184131281368L339.4171159390935,7.446856108372206z" style="fill:rgb(0,0,0)"></path><path d="M346.43339676929253,-135.4356613548147L346.43339676929253,143.95631296445777L342.07081205143,-128.89191734130054z" style="fill:rgb(238,238,238); fill-opacity: 0.25"></path><path d="M382.28711614431603,-128.18206499969733L382.28711614431603,151.2099093195751" style="fill:none;stroke:rgb(0,0,0);stroke-width:1;stroke-linecap:round"></path><path d="M243.83464575079154,183.69011241866087L284.0509498436776,184.39996476026406L284.0509498436776,-164.8400260200521z" style="fill:rgb(238,238,238); fill-opacity: 0.25"></path><path d="M288.41353456154013,-171.3837700335663L284.0509498436776,-164.8400260200521M386.6497008621785,-134.72580901321152L346.4333967692925,-135.4356613548147M346.4333967692925,-135.4356613548147L342.0708120514299,-128.89191734130054M22.06605793723757,-36.80593496718836L22.06605793723757,55.86950878247552M22.06605793723757,55.86950878247552L162.82311765133437,58.35399189669852" style="fill:none;stroke:rgb(0,0,0);stroke-width:1;stroke-linecap:round"></path><path d="M319.3064432096517,-1.4437090351161068L318.83011285593847,12.683101464489766L339.4171159390935,7.446856108372206z" style="fill:rgb(0,0,0)"></path><path d="M389.30339697451507,8.32739185638822L418.3133281336452,8.83944208147837" style="fill:none;stroke:rgb(0,0,0);stroke-width:1;stroke-linecap:round"></path><path d="M444.669563069931,-28.92971819525461L444.669563069931,40.91827538456351L440.3069783520684,-22.385974181740426zM480.5232824449545,48.171871739680896L484.885867162817,41.6281277261667L484.885867162817,-28.219865853651413z" style="fill:rgb(238,238,238); fill-opacity: 0.25"></path><path d="M386.6497008621785,-134.72580901321152L382.28711614431603,-128.18206499969733" style="fill:none;stroke:rgb(0,0,0);stroke-width:1;stroke-linecap:round"></path><path d="M419.0840467570002,-2.0218650999413814L417.5426095102902,0.29024375471682734L437.6532822397319,9.180808898205141z" style="fill:rgb(0,0,0)"></path><path d="M-138.6906278128996,70.28835715984067L-184.7191540905802,139.32974265940433L-184.7191540905802,-73.08511342566759zM284.0509498436776,-164.8400260200521L284.0509498436776,184.39996476026406L288.41353456154013,-171.38377003356632z" style="fill:rgb(238,238,238); fill-opacity: 0.25"></path><path d="M417.0662791565769,14.4170542543227L418.3133281336452,20.835794102646613L437.6532822397319,9.180808898205141z" style="fill:rgb(0,0,0)"></path><path d="M480.5232824449545,-21.676121840137228L484.885867162817,-28.219865853651413L444.669563069931,-28.92971819525461z" style="fill:rgb(238,238,238); fill-opacity: 0.25"></path><path d="M-109.33927416149567,-62.072326604887984L-109.33927416149567,85.62384313024198M-109.33927416149567,85.62384313024198L-38.96074430444726,86.86608468735348" style="fill:none;stroke:rgb(0,0,0);stroke-width:1;stroke-linecap:round"></path><path d="M480.5232824449545,48.171871739680896L440.3069783520684,47.46201939807769L484.885867162817,41.6281277261667zM284.0509498436776,-164.8400260200521L288.41353456154013,-171.38377003356632L248.19723046865408,-172.0936223751695zM342.07081205143,150.50005697797192L382.2871161443161,151.20990931957513L382.2871161443161,-128.18206499969733z" style="fill:rgb(238,238,238); fill-opacity: 0.25"></path><path d="M417.5426095102902,0.29024375471682734L417.0662791565769,14.4170542543227L437.6532822397319,9.180808898205141z" style="fill:rgb(0,0,0)"></path><path d="M444.669563069931,40.91827538456351L440.3069783520684,47.46201939807769L440.3069783520684,-22.385974181740426zM382.2871161443161,-128.18206499969733L382.2871161443161,151.20990931957513L386.64970086217863,-134.7258090132115zM382.2871161443161,-128.18206499969733L386.64970086217863,-134.7258090132115L346.43339676929253,-135.4356613548147z" style="fill:rgb(238,238,238); fill-opacity: 0.25"></path><path d="M162.82311765133437,-34.32145185296535L162.82311765133437,58.35399189669852" style="fill:none;stroke:rgb(0,0,0);stroke-width:1;stroke-linecap:round"></path><path d="M22.06605793723758,55.86950878247552L162.82311765133437,58.35399189669852L162.82311765133437,-34.32145185296535zM22.06605793723758,-36.80593496718836L22.06605793723758,55.86950878247552L162.82311765133437,-34.32145185296535z" style="fill:rgb(238,238,238); fill-opacity: 0.25"></path><path d="M22.06605793723757,-36.80593496718836L162.82311765133437,-34.32145185296535" style="fill:none;stroke:rgb(0,0,0);stroke-width:1;stroke-linecap:round"></path><path d="M243.83464575079154,-165.5498783616553L243.83464575079154,183.69011241866087L284.0509498436776,-164.8400260200521z" style="fill:rgb(238,238,238); fill-opacity: 0.25"></path><path d="M-38.96074430444726,-60.83008504777648L-38.96074430444726,86.86608468735348" style="fill:none;stroke:rgb(0,0,0);stroke-width:1;stroke-linecap:round"></path><path d="M-179.88416556405852,-72.9997717214859L-179.88416556405852,139.41508436358603L-133.85563928637794,-142.04115722104956zM480.5232824449545,-21.676121840137228L480.5232824449545,48.171871739680896L484.885867162817,-28.219865853651413zM440.3069783520684,-22.385974181740426L480.5232824449545,-21.676121840137228L444.669563069931,-28.92971819525461z" style="fill:rgb(238,238,238); fill-opacity: 0.25"></path><path d="M440.3069783520685,-22.385974181740426L440.3069783520685,47.46201939807769M440.3069783520685,47.46201939807769L480.5232824449545,48.171871739680896" style="fill:none;stroke:rgb(0,0,0);stroke-width:1;stroke-linecap:round"></path><path d="M243.83464575079154,-165.5498783616553L284.0509498436776,-164.8400260200521L248.19723046865408,-172.0936223751695zM-109.33927416149567,85.62384313024198L-38.96074430444726,86.86608468735348L-38.96074430444726,-60.83008504777648z" style="fill:rgb(238,238,238); fill-opacity: 0.25"></path><path d="M480.5232824449545,-21.676121840137224L480.5232824449545,48.171871739680896" style="fill:none;stroke:rgb(0,0,0);stroke-width:1;stroke-linecap:round"></path><path d="M342.07081205143,-128.89191734130054L342.07081205143,150.50005697797192L382.2871161443161,-128.18206499969733zM342.07081205143,-128.89191734130054L382.2871161443161,-128.18206499969733L346.43339676929253,-135.4356613548147zM440.3069783520684,47.46201939807769L480.5232824449545,48.171871739680896L480.5232824449545,-21.676121840137228zM-109.33927416149567,-62.072326604887984L-109.33927416149567,85.62384313024198L-38.96074430444726,-60.83008504777648zM-184.7191540905802,-73.08511342566759L-179.88416556405852,-72.9997717214859L-138.6906278128996,-142.12649892523126zM440.3069783520684,-22.385974181740426L440.3069783520684,47.46201939807769L480.5232824449545,-21.676121840137228z" style="fill:rgb(238,238,238); fill-opacity: 0.25"></path><path d="M-172.44308817552056,90.77034118337222L-172.4430881755206,67.60148067884388L-106.32569232368073,49.536791704833696z" style="fill:rgb(255,187,187); fill-opacity: 0.26"></path><path d="M440.3069783520685,-22.385974181740426L480.5232824449545,-21.676121840137224M-109.33927416149567,-62.072326604887984L-38.96074430444726,-60.83008504777648M243.83464575079148,-165.54987836165532L284.0509498436776,-164.8400260200521" style="fill:none;stroke:rgb(0,0,0);stroke-width:1;stroke-linecap:round"></path><path d="M-174.97549017424478,94.56886694061691L-172.44308817552056,90.77034118337222L-106.32569232368073,49.536791704833696z" style="fill:rgb(255,187,187); fill-opacity: 0.26"></path><path d="M342.0708120514299,-128.89191734130054L382.28711614431603,-128.18206499969733" style="fill:none;stroke:rgb(0,0,0);stroke-width:1;stroke-linecap:round"></path><path d="M-172.4430881755206,67.60148067884388L-174.97549017424478,71.40000643608856L-106.32569232368073,49.536791704833696zM-174.97549017424478,71.40000643608856L-174.97549017424478,94.56886694061691L-106.32569232368073,49.536791704833696z" style="fill:rgb(255,187,187); fill-opacity: 0.26"></path><path d="M-170.02559388860197,90.813012216421L-174.8605824151237,90.72767051223931M-174.8605824151237,67.55880957482334L-174.8605824151237,90.72767051223931M-174.8605824151237,90.72767051223931L-177.39298446116334,94.52619634045574M-172.4430904986747,67.60147958027318L-172.44309049867468,90.77034051768915M-172.44309049867468,90.77034051768915L-174.97549254471437,94.56886634590558M-170.02559388860197,67.64415127900504L-170.02559388860197,90.813012216421M-170.02559388860197,90.813012216421L-172.55799593464167,94.61153804463744" style="fill:none;stroke:rgb(0,0,0);stroke-width:1;stroke-linecap:round"></path><path d="M-170.02559388860197,90.813012216421L-174.86058241512367,90.72767051223931L-174.86058241512367,67.55880957482334zM-170.02559388860197,67.64415127900504L-170.02559388860197,90.813012216421L-174.86058241512367,67.55880957482334z" style="fill:rgb(153,221,255); fill-opacity: 0.26"></path><path d="M-170.02559388860197,67.64415127900504L-174.8605824151237,67.55880957482334M-174.8605824151237,67.55880957482334L-177.39298446116334,71.35733540303978M-172.4430904986747,67.60147958027318L-174.97549254471437,71.40000540848962M-170.02559388860197,67.64415127900504L-172.55799593464167,71.44267710722147" style="fill:none;stroke:rgb(0,0,0);stroke-width:1;stroke-linecap:round"></path><path d="M-177.39298446116334,94.52619634045574L-174.86058241512367,90.72767051223931L-170.02559388860197,90.813012216421z" style="fill:rgb(153,221,255); fill-opacity: 0.26"></path><path d="M-172.4430881755206,67.60148067884388L-172.44308817552056,90.77034118337222L-174.97549017424478,94.56886694061691z" style="fill:rgb(255,187,187); fill-opacity: 0.26"></path><path d="M-172.55799593464167,94.61153804463744L-170.02559388860197,90.813012216421L-170.02559388860197,67.64415127900504zM-174.86058241512367,67.55880957482334L-174.86058241512367,90.72767051223931L-177.39298446116334,71.35733540303978zM-172.55799593464167,71.44267710722147L-170.02559388860197,67.64415127900504L-174.86058241512367,67.55880957482334zM-172.55799593464167,94.61153804463744L-177.39298446116334,94.52619634045574L-170.02559388860197,90.813012216421zM-174.86058241512367,90.72767051223931L-177.39298446116334,94.52619634045574L-177.39298446116334,71.35733540303978z" style="fill:rgb(153,221,255); fill-opacity: 0.26"></path><path d="M-172.4430881755206,67.60148067884388L-174.97549017424478,94.56886694061691L-174.97549017424478,71.40000643608856z" style="fill:rgb(255,187,187); fill-opacity: 0.26"></path><path d="M-172.55799593464167,71.44267710722147L-172.55799593464167,94.61153804463744L-170.02559388860197,67.64415127900504zM-177.39298446116334,71.35733540303978L-172.55799593464167,71.44267710722147L-174.86058241512367,67.55880957482334z" style="fill:rgb(153,221,255); fill-opacity: 0.26"></path><path d="M-177.39298446116334,71.35733540303978L-177.39298446116334,94.52619634045574M-177.39298446116334,94.52619634045574L-172.55799593464167,94.61153804463744M-174.97549254471437,94.56886634590558L-174.97549254471437,71.40000540848962M-172.55799593464167,71.44267710722147L-172.55799593464167,94.61153804463744" style="fill:none;stroke:rgb(0,0,0);stroke-width:1;stroke-linecap:round"></path><path d="M-177.39298446116334,94.52619634045574L-172.55799593464167,94.61153804463744L-172.55799593464167,71.44267710722147zM-177.39298446116334,71.35733540303978L-177.39298446116334,94.52619634045574L-172.55799593464167,71.44267710722147z" style="fill:rgb(153,221,255); fill-opacity: 0.26"></path><path d="M-177.39298446116334,71.35733540303978L-172.55799593464167,71.44267710722147M-184.71915409058022,-73.08511342566759L-184.71915409058022,139.32974265940436M-184.71915409058022,139.32974265940436L-179.88416556405852,139.41508436358603M-179.88416556405855,-72.9997717214859L-179.88416556405852,139.41508436358603" style="fill:none;stroke:rgb(0,0,0);stroke-width:1;stroke-linecap:round"></path><path d="M-184.7191540905802,139.32974265940433L-179.88416556405852,139.41508436358603L-179.88416556405852,-72.9997717214859zM-184.7191540905802,-73.08511342566759L-184.7191540905802,139.32974265940433L-179.88416556405852,-72.9997717214859z" style="fill:rgb(238,238,238); fill-opacity: 0.25"></path><path d="M-184.71915409058022,-73.08511342566759L-179.88416556405855,-72.9997717214859" style="fill:none;stroke:rgb(0,0,0);stroke-width:1;stroke-linecap:round"></path></svg>